<?xml version="1.0" encoding="UTF-8"?>
<svg version="1.1" xmlns="http://www.w3.org/2000/svg" width="512" height="512">
<path d="M0 0 C12.00884903 7.96999846 19.84523771 18.27233356 23.30078125 32.421875 C23.38006216 34.85844162 23.42064893 37.2965243 23.42578125 39.734375 C23.54952132 44.58433596 23.54952132 44.58433596 26.2265625 48.36328125 C28.74194328 49.84284316 28.74194328 49.84284316 31.48828125 51.08984375 C51.04818364 60.35363086 64.56332016 81.98537274 72.30078125 101.421875 C79.08376569 120.43124205 78.80397729 140.5012479 79.30078125 160.421875 C80.00203125 159.82294434 80.70328125 159.22401367 81.42578125 158.60693359 C86.81074099 154.0898962 91.93562949 150.04457095 98.30078125 147.046875 C99.23277344 146.57314453 99.23277344 146.57314453 100.18359375 146.08984375 C109.5288356 141.53072779 118.76860719 139.87908995 129.11328125 139.984375 C130.68867676 139.99573486 130.68867676 139.99573486 132.29589844 140.00732422 C140.56678398 140.18213312 147.60022615 141.23235476 155.30078125 144.421875 C156.84572266 145.05802734 156.84572266 145.05802734 158.421875 145.70703125 C175.43729211 153.48860417 188.05973655 167.61142102 194.66015625 185.00390625 C200.67737926 204.08024732 199.57864674 222.57492355 191.17578125 240.671875 C187.09503997 248.37405335 181.63799717 256.53039772 174.30078125 261.421875 C175.19796875 261.545625 176.09515625 261.669375 177.01953125 261.796875 C195.37725844 264.83121007 210.02273421 273.36519946 221.23828125 288.359375 C228.47069627 299.45495805 231.61405266 311.06584273 231.6015625 324.16015625 C231.60799019 325.66403145 231.60799019 325.66403145 231.61454773 327.19828796 C231.62026089 329.30348966 231.62081368 331.40871108 231.61645508 333.51391602 C231.6132737 336.742036 231.63686567 339.96925728 231.66210938 343.19726562 C231.66438046 345.24739468 231.66508675 347.29752619 231.6640625 349.34765625 C231.67327225 350.31326981 231.68248199 351.27888336 231.69197083 352.27375793 C231.68262764 353.61611763 231.68262764 353.61611763 231.6730957 354.9855957 C231.67372513 355.77198929 231.67435455 356.55838287 231.67500305 357.36860657 C231.19650153 359.99403367 230.467652 360.88747017 228.30078125 362.421875 C226.98078125 362.421875 225.66078125 362.421875 224.30078125 362.421875 C224.30078125 369.021875 224.30078125 375.621875 224.30078125 382.421875 C225.95078125 382.751875 227.60078125 383.081875 229.30078125 383.421875 C231.79646632 385.91756007 231.55329777 386.67750422 231.56147766 390.12193298 C231.56856247 391.11321701 231.57564728 392.10450104 231.58294678 393.12582397 C231.58046936 394.21730743 231.57799194 395.30879089 231.57543945 396.43334961 C231.58055038 397.57974411 231.58566132 398.72613861 231.59092712 399.90727234 C231.60487592 403.71297362 231.60386237 407.51849488 231.6015625 411.32421875 C231.6054465 413.95976327 231.60978055 416.59530715 231.61454773 419.23085022 C231.62276785 424.76158251 231.62184794 430.29226374 231.61645508 435.82299805 C231.61041432 442.21916513 231.62272667 448.6151123 231.64402515 455.01124185 C231.66374861 461.16006716 231.66681686 467.30878943 231.66329002 473.45764351 C231.66380481 476.07599975 231.66907175 478.69435938 231.67910194 481.31269646 C231.69138832 484.96897372 231.68472123 488.6247373 231.6730957 492.28100586 C231.68073944 493.37046509 231.68838318 494.45992432 231.69625854 495.58239746 C231.68924423 496.57650131 231.68222992 497.57060516 231.67500305 498.59483337 C231.67525466 499.89204772 231.67525466 499.89204772 231.67551136 501.21546841 C231.30078125 503.421875 231.30078125 503.421875 230.29380769 505.0361802 C227.13570037 507.23192272 223.74927564 506.83186019 220.03762817 506.79939842 C218.75230843 506.80593891 218.75230843 506.80593891 217.44102263 506.81261152 C214.54402059 506.82363771 211.64748756 506.81311162 208.75048828 506.80282593 C206.66288571 506.80627958 204.57528497 506.81104217 202.48768806 506.81700766 C196.73101243 506.82958748 190.97448505 506.82331566 185.21780872 506.81404901 C179.01732669 506.80728732 172.81687093 506.81772538 166.61639404 506.82598877 C155.16500356 506.83858556 143.71367953 506.8374548 132.26228935 506.82925436 C121.68447767 506.82171643 111.10668343 506.81973351 100.52886963 506.8233223 C99.82801975 506.82355145 99.12716987 506.82378061 98.40508212 506.82401671 C95.56031444 506.82495068 92.71554677 506.82590587 89.8707791 506.826896 C63.16864197 506.83607907 36.46653512 506.82774299 9.76440266 506.81160531 C-13.97413842 506.79736782 -37.71263122 506.79864167 -61.45117188 506.81298828 C-88.10355178 506.82904194 -114.75590489 506.83542789 -141.40828896 506.82615149 C-144.24796167 506.8251893 -147.0876344 506.82425078 -149.92730713 506.8233223 C-150.6265395 506.82308506 -151.32577188 506.82284783 -152.04619311 506.82260341 C-162.61899854 506.81918676 -173.19178465 506.82318969 -183.7645874 506.83076096 C-195.78280502 506.83932423 -207.80095314 506.83693542 -219.81916857 506.82091872 C-225.95615153 506.8130107 -232.09303628 506.80998733 -238.23001862 506.81986618 C-243.84060719 506.82876138 -249.4510059 506.82396623 -255.06157708 506.80793352 C-257.09853751 506.80456365 -259.13551376 506.80632877 -261.17246413 506.81356089 C-263.92723069 506.82259638 -266.68133459 506.81341616 -269.43606567 506.79939842 C-270.23912588 506.80642192 -271.04218609 506.81344542 -271.86958146 506.82068175 C-277.18136151 506.76612769 -277.18136151 506.76612769 -279.69143581 505.09752142 C-281.39587622 502.26353865 -281.08988795 499.50558288 -281.10327148 496.24414062 C-281.11013474 495.51700363 -281.11699799 494.78986664 -281.12406921 494.04069519 C-281.14237606 491.63630671 -281.13849481 489.23256824 -281.1328125 486.828125 C-281.13737213 485.15807889 -281.14267705 483.48803465 -281.1486969 481.81799316 C-281.15763536 478.31754942 -281.15519623 474.81733373 -281.14526367 471.31689453 C-281.13376692 466.82736329 -281.15399199 462.33861775 -281.18318081 457.84918976 C-281.20151076 454.40052274 -281.20125691 450.95204517 -281.19554329 447.50334167 C-281.19538971 445.84790443 -281.20146404 444.19245463 -281.21383476 442.5370636 C-281.22868506 440.22407453 -281.21811403 437.91255199 -281.20092773 435.59960938 C-281.20076157 434.28295288 -281.2005954 432.96629639 -281.20042419 431.60974121 C-280.69921875 428.421875 -280.69921875 428.421875 -278.85536194 426.4732666 C-276.69921875 425.421875 -276.69921875 425.421875 -273.69921875 425.421875 C-273.69921875 418.821875 -273.69921875 412.221875 -273.69921875 405.421875 C-275.34921875 405.091875 -276.99921875 404.761875 -278.69921875 404.421875 C-281.25856011 401.86253364 -280.95178369 400.17096753 -280.99249268 396.68049622 C-280.9915863 395.87746567 -280.99067993 395.07443512 -280.98974609 394.24707031 C-280.99646332 393.40119858 -281.00318054 392.55532684 -281.01010132 391.68382263 C-281.02917468 388.87248931 -281.03301198 386.06139412 -281.03515625 383.25 C-281.04158415 381.29099429 -281.04831251 379.33198954 -281.05532837 377.37298584 C-281.06732896 373.25368023 -281.07100699 369.13445859 -281.06982422 365.01513672 C-281.06962234 359.77005372 -281.09677503 354.52552061 -281.13136864 349.28056717 C-281.15377261 345.22584637 -281.15765744 341.17125428 -281.15660477 337.11647797 C-281.15894622 335.18543374 -281.16768648 333.25438517 -281.1832695 331.3234024 C-281.33083963 311.12378704 -277.51954016 294.91731608 -263.14453125 279.73828125 C-251.49400544 268.70192054 -239.20209772 263.99522738 -223.69921875 261.421875 C-224.50359375 260.844375 -225.30796875 260.266875 -226.13671875 259.671875 C-239.10656431 248.79195716 -246.12066616 231.8515073 -247.93115234 215.30175781 C-249.33597139 196.04199896 -243.37561135 177.42447017 -230.79296875 162.6640625 C-219.61435396 150.69293397 -204.89778519 141.50994052 -188.18237305 140.22900391 C-163.86147341 139.49207462 -147.41890604 144.30271759 -128.69921875 160.421875 C-128.67939941 159.66269775 -128.65958008 158.90352051 -128.63916016 158.12133789 C-127.60294044 120.28786819 -122.80126783 87.6946019 -94.125 60.44921875 C-88.72951526 55.54126846 -82.24263641 50.06507772 -75.35546875 47.57421875 C-74.80890625 47.19394531 -74.26234375 46.81367187 -73.69921875 46.421875 C-73.17620022 43.54909637 -73.17620022 43.54909637 -73.26171875 40.171875 C-72.58664034 25.54517619 -66.80447296 15.05679874 -56.38671875 5.171875 C-41.11871747 -7.88525727 -17.40359311 -10.17518324 0 0 Z M-109.69921875 207.421875 C-109.869375 208.66582031 -110.03953125 209.90976563 -110.21484375 211.19140625 C-111.51621666 220.29826915 -112.7908262 229.00686655 -116.69921875 237.421875 C-117.11945313 238.33066406 -117.5396875 239.23945313 -117.97265625 240.17578125 C-121.08102857 246.34959257 -124.88439122 251.23603682 -129.6484375 256.23046875 C-131.49971149 258.20868724 -133.12144161 260.22300463 -134.69921875 262.421875 C-133.6834375 262.56882812 -132.66765625 262.71578125 -131.62109375 262.8671875 C-123.2679176 264.19066453 -116.47825634 266.01194977 -109.0546875 270.3125 C-106.6340809 271.78366598 -106.6340809 271.78366598 -103.69921875 270.421875 C-102.37841259 268.52263252 -102.37841259 268.52263252 -101.13671875 266.234375 C-96.71727592 259.36454802 -90.45869218 255.84726657 -82.57421875 254.046875 C-81.29546875 253.840625 -80.01671875 253.634375 -78.69921875 253.421875 C-79.54484375 252.473125 -80.39046875 251.524375 -81.26171875 250.546875 C-92.03729266 237.86972923 -97.92257377 224.48372393 -101.69921875 208.421875 C-104.33921875 208.091875 -106.97921875 207.761875 -109.69921875 207.421875 Z M52.30078125 208.421875 C52.03265625 209.54722656 51.76453125 210.67257813 51.48828125 211.83203125 C47.68297573 227.04491934 42.24379261 239.17584834 31.20703125 250.4453125 C29.18508321 252.08417172 29.18508321 252.08417172 29.30078125 253.421875 C29.99042969 253.56882812 30.68007813 253.71578125 31.390625 253.8671875 C40.64738085 256.07661894 47.4485234 259.25064605 52.86328125 267.296875 C53.69391135 268.66099922 54.51338272 270.03234817 55.30078125 271.421875 C57.94673263 270.36934185 60.58428362 269.30314649 63.2109375 268.203125 C70.53071122 265.22804968 77.45717748 263.3687605 85.30078125 262.421875 C84.93726563 261.99777344 84.57375 261.57367188 84.19921875 261.13671875 C83.13046418 259.88983842 82.06569793 258.6395337 81.00390625 257.38671875 C79.98124866 256.20690965 78.93548862 255.04578071 77.84765625 253.92578125 C65.63869681 241.01245877 62.2507851 224.4213203 60.30078125 207.421875 C57.46110894 207.421875 55.06342414 207.82454681 52.30078125 208.421875 Z M-88.51171875 274.046875 C-90.32458564 277.67260878 -90.45095542 281.41541853 -90.69921875 285.421875 C-85.34110906 285.59085612 -80.50572703 284.98698922 -75.26171875 283.921875 C-74.53017578 283.77878906 -73.79863281 283.63570313 -73.04492188 283.48828125 C-71.26186389 283.13866204 -69.48036672 282.78109812 -67.69921875 282.421875 C-67.69921875 278.131875 -67.69921875 273.841875 -67.69921875 269.421875 C-79.00602154 268.75734284 -79.00602154 268.75734284 -88.51171875 274.046875 Z M18.30078125 269.421875 C18.30078125 273.711875 18.30078125 278.001875 18.30078125 282.421875 C20.82021521 282.92999614 23.34094998 283.42852034 25.86328125 283.921875 C26.56775391 284.06496094 27.27222656 284.20804687 27.99804688 284.35546875 C32.51968363 285.23062425 36.69565153 285.56710905 41.30078125 285.421875 C41.04961913 279.65770427 40.77566035 275.52384751 36.30078125 271.421875 C32.27479454 269.38402987 28.96584208 269.20641923 24.48828125 269.296875 C22.44640625 269.338125 20.40453125 269.379375 18.30078125 269.421875 Z " fill="#010102" transform="translate(280.69921875,5.578125)"/>
<path d="M0 0 C5.66423499 0 6.30429864 0.5712548 10.5 4 C11.65523496 4.92574726 12.81156371 5.85013058 13.96875 6.7734375 C14.60683594 7.28745117 15.24492187 7.80146484 15.90234375 8.33105469 C19.88213575 11.49747206 23.9480582 14.5518603 28 17.625 C29.79974833 18.994438 31.59922276 20.36423603 33.3984375 21.734375 C34.31206055 22.42982422 35.22568359 23.12527344 36.16699219 23.84179688 C39.08433564 26.06424742 41.99946096 28.28958007 44.9140625 30.515625 C46.34878906 31.61076416 46.34878906 31.61076416 47.8125 32.72802734 C49.65417825 34.13390569 51.49534398 35.54045573 53.3359375 36.94775391 C54.16609375 37.58116699 54.99625 38.21458008 55.8515625 38.8671875 C56.58197754 39.42519043 57.31239258 39.98319336 58.06494141 40.55810547 C62.0305416 43.51304299 64.0233907 44.54674359 69 44 C71.58645858 42.61741095 71.58645858 42.61741095 74.0625 40.5 C75.11145996 39.67121744 76.16098623 38.84315136 77.2109375 38.015625 C77.80100586 37.54318359 78.39107422 37.07074219 78.99902344 36.58398438 C83.01154392 33.40765045 87.1101006 30.34226086 91.1875 27.25 C98.57291801 21.62307776 105.95011775 15.98535505 113.3190918 10.33691406 C114.57789489 9.37291525 115.83944922 8.41249621 117.10400391 7.45605469 C118.44566153 6.42571139 119.76933117 5.37174599 121.07958984 4.30175781 C121.76875488 3.75100586 122.45791992 3.20025391 123.16796875 2.6328125 C123.78309326 2.1289502 124.39821777 1.62508789 125.03198242 1.10595703 C127.48974314 -0.27521851 129.22184256 -0.08078787 132 0 C132.20860442 11.8913455 132.36848176 23.7822553 132.46630955 35.67505836 C132.51326504 41.1976042 132.57694111 46.71889768 132.67895508 52.24072266 C132.77680578 57.57060399 132.83056998 62.89928166 132.85389519 68.22999191 C132.87051483 70.26271901 132.90297161 72.29538074 132.95157051 74.32759476 C133.31923678 90.33999996 133.31923678 90.33999996 130.04196167 94.46380615 C127.63256836 96.03271484 127.63256836 96.03271484 125.2308197 97.00668335 C121.38999165 98.7168881 119.75477946 102.32593051 118 106 C115.88094097 112.35717708 116.29184054 118.24663295 119.125 124.3125 C122.85500699 130.99717545 127.60825289 134.65928008 135 137 C142.68773581 138.17973686 148.60594667 136.32705918 155 132 C159.68388173 127.90845928 161.60247957 123.01198173 162.40625 116.921875 C162.61172528 109.96996122 161.78259131 105.19382714 158.19140625 99.21875 C155.24853942 96.03156265 155.24853942 96.03156265 147 92 C147 62.63 147 33.26 147 3 C164.70768974 5.52966996 179.94136889 10.52463235 191.0625 25.125 C199.66224632 37.32578733 202.28415573 48.20567776 202.30859375 62.88671875 C202.31970705 64.23477763 202.33210336 65.58282649 202.34571838 66.93086243 C202.40085463 72.6274015 202.43188375 78.32400678 202.45629883 84.02075195 C202.47218066 87.51733152 202.50239178 91.01356046 202.54106331 94.50995827 C202.55833251 96.4818886 202.55876789 98.45394315 202.5589447 100.4259491 C202.57228348 101.624319 202.58562225 102.8226889 202.59936523 104.05737305 C202.60443588 105.11103561 202.60950653 106.16469818 202.61473083 107.25028992 C203.05802651 110.41414186 203.72817123 111.77278507 206 114 C207.32 114.33 208.64 114.66 210 115 C210 121.6 210 128.2 210 135 C208.02 135.99 206.04 136.98 204 138 C202.77916915 140.4416617 202.84269257 142.08690806 202.79467773 144.81689453 C202.77473251 145.81778107 202.75478729 146.8186676 202.73423767 147.84988403 C202.71752518 148.93325043 202.70081268 150.01661682 202.68359375 151.1328125 C202.6524221 152.79327103 202.6524221 152.79327103 202.62062073 154.48727417 C202.55509009 158.03311799 202.49622386 161.57903754 202.4375 165.125 C202.39431813 167.5247475 202.35070395 169.92448727 202.30664062 172.32421875 C202.19858939 178.21606925 202.09954176 184.10797492 202 190 C188.8 190 175.6 190 162 190 C161.6875 172.125 161.6875 172.125 161.61206055 166.48486328 C161.57978225 165.01332025 161.54641019 163.54180062 161.51171875 162.0703125 C161.50547485 161.30323975 161.49923096 160.53616699 161.49279785 159.74584961 C161.46105415 157.30536148 161.46105415 157.30536148 161 154 C157.29584707 151.53056471 155.37855495 151.53086911 151 152 C143.35801073 162.18931903 147.37444539 177.26885658 147 190 C93.54 190 40.08 190 -15 190 C-15.33 178.78 -15.66 167.56 -16 156 C-19.49168575 151.66752408 -19.49168575 151.66752408 -23.625 151.625 C-27.06832602 151.65186266 -27.06832602 151.65186266 -29 154 C-29.24548287 156.71910816 -29.37372502 159.34653102 -29.4140625 162.0703125 C-29.43170654 162.77599365 -29.44935059 163.4816748 -29.4675293 164.20874023 C-29.53064097 166.84726082 -29.57679688 169.48616495 -29.625 172.125 C-29.74875 178.02375 -29.8725 183.9225 -30 190 C-43.2 190 -56.4 190 -70 190 C-70.09047378 171.82312133 -70.16408259 153.64643638 -70.20724869 135.46939468 C-70.22782877 127.02850503 -70.25586166 118.58776576 -70.30175781 110.14697266 C-70.34176571 102.78555022 -70.36746588 95.42423676 -70.37635398 88.06270862 C-70.38154526 84.16879702 -70.39365015 80.27519702 -70.42292023 76.3813858 C-70.45031069 72.70744111 -70.45839804 69.03393282 -70.45243073 65.35989571 C-70.45403549 63.38690207 -70.47543351 61.41395467 -70.49768066 59.44108582 C-70.43318134 45.33114996 -65.50749046 31.21174746 -55.8125 20.68359375 C-44.76416874 10.42102742 -30.37499222 3 -15 3 C-15 16.53 -15 30.06 -15 44 C-21.435 45.98 -21.435 45.98 -28 48 C-39.38079387 54.05333797 -47.03000843 64.15435724 -51.08203125 76.22265625 C-52.56399132 82.41311331 -52.37200521 88.82367791 -52.37060547 95.15332031 C-52.37497709 97.36341572 -52.41137395 99.57150662 -52.44921875 101.78125 C-52.51907192 110.47662379 -52.26159543 118.9112927 -46.41503906 125.89257812 C-42.59320505 129.72652956 -38.44646604 130.9801913 -33.2890625 132.2734375 C-31 133 -31 133 -28.25 135.25 C-26.05504252 137.34502266 -26.05504252 137.34502266 -22.8125 136.875 C-19.89700292 136.20708821 -19.89700292 136.20708821 -18 134 C-17.55706458 131.02032424 -17.67585572 128.00888134 -17.6875 125 C-17.67138672 124.16726563 -17.65527344 123.33453125 -17.63867188 122.4765625 C-17.63802734 121.67992187 -17.63738281 120.88328125 -17.63671875 120.0625 C-17.63373779 119.33160156 -17.63075684 118.60070312 -17.62768555 117.84765625 C-17.85733022 115.58516496 -17.85733022 115.58516496 -21 114 C-24.5 113.5 -24.5 113.5 -28 114 C-29.98239527 115.86124923 -29.98239527 115.86124923 -31 118 C-34.65316671 116.75023244 -35.78065836 116.32901247 -38 113 C-38.41243812 108.70197884 -38.37159626 104.39375848 -38.37060547 100.07836914 C-38.37493592 97.96871567 -38.41113355 95.86123041 -38.44921875 93.75195312 C-38.54103039 82.86711974 -36.87938607 73.90459138 -29.1640625 65.828125 C-21.96480069 59.74643813 -14.50976338 57.04517401 -5.10546875 57.55078125 C3.50260517 58.79597433 10.27867165 62.4538528 16 69 C21.76710293 77.4669049 22.88155746 85.41439984 22.61743164 95.35742188 C22.56183872 97.52579275 22.55590982 99.69035781 22.55664062 101.859375 C22.43508592 113.34047705 22.43508592 113.34047705 19 117 C14.25 116.25 14.25 116.25 12 114 C7.46498077 113.50488592 7.46498077 113.50488592 3.3046875 115.0234375 C1.25951428 118.12181369 1.52717508 121.35041462 1.5625 124.9375 C1.54251953 125.65357422 1.52253906 126.36964844 1.50195312 127.10742188 C1.50522643 130.63931417 1.7211033 132.62891568 3.8671875 135.484375 C6.49704033 137.35320815 7.83585975 137.40565901 11 137 C11.99 136.67 12.98 136.34 14 136 C14.33 135.01 14.66 134.02 15 133 C17.00390625 132.296875 17.00390625 132.296875 19.5625 131.75 C25.22133233 130.19341575 29.31293017 127.59819332 33 123 C35.67756827 117.71452916 36.46713187 113.56378182 36.46875 107.6796875 C36.47636353 106.89917023 36.48397705 106.11865295 36.49182129 105.31448364 C36.50257328 103.66899796 36.50549543 102.0234443 36.50097656 100.37792969 C36.50001045 97.90178771 36.54155261 95.42881576 36.5859375 92.953125 C36.70194403 77.61311412 33.00061015 66.25829633 22.08984375 55.03515625 C15.48565112 48.82485185 8.64049737 46.46871353 0 44 C0 29.48 0 14.96 0 0 Z " fill="#E4F5FC" transform="translate(190,307)"/>
<path d="M0 0 C0.92436859 -0.00350464 1.84873718 -0.00700928 2.80111694 -0.01062012 C5.84681787 -0.01939863 8.89228511 -0.01360096 11.93798828 -0.00683594 C14.062592 -0.00818393 16.18719543 -0.01012558 18.3117981 -0.01263428 C22.76193177 -0.01558048 27.21198506 -0.01130489 31.66210938 -0.00195312 C37.35366676 0.00942714 43.0450352 0.00288771 48.73658562 -0.00909805 C53.1238852 -0.01634207 57.51114036 -0.0140168 61.89844131 -0.00884247 C63.99630887 -0.00751228 66.09418052 -0.00913149 68.1920433 -0.01380157 C71.13074086 -0.01890704 74.06913724 -0.01109957 77.0078125 0 C77.86729492 -0.00404846 78.72677734 -0.00809692 79.61230469 -0.01226807 C93.00525723 0.08097095 104.72171023 5.46167014 114.37548828 14.71191406 C127.22775221 29.20962355 127.08032762 45.22606542 127.0690918 63.47143555 C127.07265293 66.14964614 127.09992303 68.8268511 127.12939453 71.50488281 C127.12121201 72.32468124 127.11302948 73.14447968 127.104599 73.98912048 C127.15208073 77.6087151 127.28789758 79.79338877 129.47729492 82.7434082 C131.64781722 84.42296693 131.64781722 84.42296693 134.63330078 85.25878906 C134.63330078 91.85878906 134.63330078 98.45878906 134.63330078 105.25878906 C131.66330078 106.74378906 131.66330078 106.74378906 128.63330078 108.25878906 C127.48244616 110.5604983 127.49668232 111.88640678 127.4750824 114.44754028 C127.46529358 115.32536163 127.45550476 116.20318298 127.44541931 117.10760498 C127.43966385 118.07289124 127.43390839 119.03817749 127.42797852 120.03271484 C127.41807892 121.04737823 127.40817932 122.06204163 127.39797974 123.10745239 C127.36630409 126.4729781 127.34158334 129.83851794 127.31689453 133.20410156 C127.29633024 135.53295262 127.27533392 137.8617999 127.25392151 140.19064331 C127.19864662 146.32925361 127.14926125 152.4678979 127.10107422 158.60656738 C127.05089871 164.86697424 126.99519205 171.12733156 126.93994141 177.38769531 C126.83229357 189.67801921 126.73137426 201.96838503 126.63330078 214.25878906 C117.39330078 214.25878906 108.15330078 214.25878906 98.63330078 214.25878906 C98.52040624 199.09027842 98.4283125 183.92195737 98.37423992 168.75313282 C98.34846497 161.70986191 98.31332865 154.66687068 98.25610352 147.6237793 C98.20091941 140.82864922 98.17189068 134.0338101 98.15891457 127.23847008 C98.14966553 124.64405426 98.13160461 122.04965461 98.1046505 119.45536232 C98.06843135 115.82544004 98.06335275 112.19672386 98.06567383 108.56665039 C98.03870926 106.95256035 98.03870926 106.95256035 98.01119995 105.30586243 C98.06215774 97.95629353 98.06215774 97.95629353 101.10237122 94.24345398 C101.93757797 93.58851456 102.77278473 92.93357513 103.63330078 92.25878906 C104.8678015 89.27378765 104.8678015 89.27378765 104.63330078 86.25878906 C102.67048699 83.27531209 101.3390775 82.43523324 97.88330078 81.57128906 C91.98535781 82.81893085 87.89930975 87.35977561 84.63330078 92.25878906 C84.32215861 94.60170197 84.32215861 94.60170197 84.35482788 97.25114441 C84.3436644 98.2817952 84.33250092 99.31244598 84.32099915 100.37432861 C84.31883896 101.50433289 84.31667877 102.63433716 84.31445312 103.79858398 C84.3044075 104.98895767 84.29436188 106.17933136 84.28401184 107.40577698 C84.25839733 110.66996624 84.24155585 113.93406056 84.22858381 117.19832015 C84.21296313 120.60966564 84.18616955 124.02092276 84.16055298 127.4322052 C84.1137463 133.89194452 84.07701138 140.35170043 84.04388011 146.81152278 C84.00567202 154.16579959 83.95625845 161.51998768 83.90589595 168.87418973 C83.80254799 184.00232999 83.71477627 199.13051224 83.63330078 214.25878906 C68.12330078 214.25878906 52.61330078 214.25878906 36.63330078 214.25878906 C36.58431641 210.68421875 36.53533203 207.10964844 36.48486328 203.42675781 C36.43088119 199.97155505 36.37356275 196.51642267 36.31591797 193.0612793 C36.27759296 190.65671005 36.24274637 188.25208279 36.21142578 185.84741211 C36.16585196 182.39448278 36.10784448 178.94195416 36.04736328 175.48925781 C36.03581207 174.4110527 36.02426086 173.3328476 36.01235962 172.2219696 C35.99248993 171.2211586 35.97262024 170.2203476 35.95214844 169.18920898 C35.93882477 168.30762619 35.9255011 167.4260434 35.91177368 166.51774597 C35.77019978 163.97801076 35.77019978 163.97801076 33.63330078 161.25878906 C30.06560526 160.52272407 30.06560526 160.52272407 26.63330078 160.25878906 C27.62330078 159.92878906 28.61330078 159.59878906 29.63330078 159.25878906 C29.6071167 158.66864014 29.58093262 158.07849121 29.55395508 157.47045898 C29.45000854 154.79600661 29.38498798 152.12197841 29.32080078 149.44628906 C29.27890625 148.51751953 29.23701172 147.58875 29.19384766 146.63183594 C29.14781866 144.08182982 29.14914676 141.76401136 29.63330078 139.25878906 C32.09033203 137.24707031 32.09033203 137.24707031 34.63330078 136.25878906 C35.96445446 133.5964817 35.78247575 131.54401499 35.81030273 128.5625 C35.82313797 127.36655212 35.83597321 126.17060425 35.84919739 124.93841553 C35.85658432 123.63648254 35.86397125 122.33454956 35.87158203 120.99316406 C35.87565756 120.32845345 35.87973309 119.66374283 35.88393211 118.97888947 C35.90482049 115.44849458 35.91910013 111.91813867 35.9284668 108.38769531 C35.93943032 104.77697613 35.97370198 101.16689062 36.0136385 97.55639267 C36.04008966 94.7524113 36.04818432 91.94857292 36.05174828 89.14447784 C36.05886401 87.17840206 36.0851972 85.21242509 36.11213684 83.246521 C36.06726912 64.32485363 28.74939223 46.89432968 15.63330078 33.25878906 C2.79239769 20.94022779 -13.39504585 15.95740286 -30.36669922 12.25878906 C-22.65392105 3.26054787 -11.49172828 -0.05387627 0 0 Z " fill="#4E65CE" transform="translate(370.36669921875,282.7412109375)"/>
<path d="M0 0 C0.81129868 -0.00860046 1.62259735 -0.01720093 2.45848083 -0.02606201 C3.34004852 -0.03032196 4.22161621 -0.03458191 5.12989807 -0.03897095 C6.06545029 -0.04714844 7.0010025 -0.05532593 7.96490479 -0.06375122 C11.06229523 -0.08856711 14.15963976 -0.10511651 17.25709534 -0.11953735 C18.84904063 -0.12752287 18.84904063 -0.12752287 20.47314644 -0.13566971 C26.09667869 -0.16239182 31.72018888 -0.18176498 37.34376526 -0.19619751 C41.98101162 -0.20950451 46.61781459 -0.23729911 51.25489807 -0.27822876 C56.86816736 -0.32776843 62.48103631 -0.35234537 68.09451485 -0.35942459 C70.22457817 -0.36610375 72.35463375 -0.38123781 74.48457146 -0.4053154 C90.10765726 -0.57176993 102.61061902 0.3619475 114.88600159 11.15390015 C111.94478676 13.11471003 109.80287126 13.67518845 106.39039612 14.34408569 C88.62740453 17.86779788 72.86542259 26.5881487 61.80006409 41.2281189 C59.50753055 44.73242016 57.4914265 48.30841754 55.57350159 52.02890015 C55.24777161 52.65224243 54.92204163 53.27558472 54.58644104 53.91781616 C49.45036112 64.3996937 48.44074838 75.02131361 48.45362854 86.55136108 C48.44458849 87.95213675 48.43425587 89.35290457 48.42274475 90.75366211 C48.39541137 94.51731583 48.38592285 98.28081851 48.37989068 102.04455853 C48.37044467 105.99238132 48.34423678 109.94009399 48.31988525 113.8878479 C48.27638655 121.34602889 48.24773787 128.80418831 48.22456187 136.26245713 C48.19742049 144.76082392 48.15351489 153.25907901 48.10827315 161.7573657 C48.01566529 179.2228326 47.94608818 196.688289 47.88600159 214.15390015 C32.37600159 214.15390015 16.86600159 214.15390015 0.88600159 214.15390015 C0.89760315 210.50528931 0.90920471 206.85667847 0.92115784 203.09750366 C0.95369564 191.03143649 0.94268959 178.96577604 0.90934753 166.89973545 C0.89019514 159.58525483 0.88583157 152.27133312 0.91676331 144.95687866 C0.94369815 138.57857459 0.94239555 132.20099468 0.9077425 125.82271713 C0.89037812 122.44781606 0.88677568 119.0742112 0.91703796 115.69937325 C0.94378418 111.92338385 0.92061993 108.15070499 0.88600159 104.37484741 C0.90541306 103.26641479 0.92482452 102.15798218 0.94482422 101.01596069 C0.80738988 93.66049622 -1.00960653 90.00802708 -6.20384216 84.79066372 C-8.64181021 82.70163185 -9.76345847 82.19200231 -12.98899841 81.84140015 C-16.16430611 81.91213572 -16.16430611 81.91213572 -18.55149841 83.77890015 C-20.3730635 86.08929098 -20.3730635 86.08929098 -20.17649841 89.09140015 C-19.36343489 92.32695649 -19.36343489 92.32695649 -16.58306885 94.13856506 C-12.87051292 98.67249815 -13.45127209 102.76914545 -13.54637146 108.46176147 C-13.54564133 109.60365936 -13.54491119 110.74555725 -13.54415894 111.92205811 C-13.54764043 115.69383352 -13.58653151 119.46437188 -13.62571716 123.2359314 C-13.6350432 125.85194728 -13.6421603 128.4679719 -13.64715576 131.08399963 C-13.66268115 137.26413229 -13.7036912 143.44382141 -13.75390321 149.62375897 C-13.80983792 156.66116312 -13.83729343 163.69858873 -13.86238039 170.73615992 C-13.91460882 185.20900109 -14.00628378 199.68136246 -14.11399841 214.15390015 C-23.35399841 214.15390015 -32.59399841 214.15390015 -42.11399841 214.15390015 C-42.16298279 209.78526733 -42.21196716 205.41663452 -42.26243591 200.9156189 C-42.30696771 197.43398065 -42.35346371 193.95238098 -42.40129089 190.47078705 C-42.45125085 186.79463897 -42.4977427 183.11852165 -42.53587341 179.44223022 C-42.57272732 175.9018827 -42.61908718 172.36177602 -42.67206192 168.82163429 C-42.69963464 166.81257098 -42.71734167 164.80338016 -42.73493958 162.79420471 C-42.75480927 161.57316544 -42.77467896 160.35212616 -42.79515076 159.09408569 C-42.80847443 158.01708908 -42.8217981 156.94009247 -42.83552551 155.83045959 C-42.92740017 152.92937666 -42.92740017 152.92937666 -45.11399841 150.15390015 C-46.76399841 149.49390015 -48.41399841 148.83390015 -50.11399841 148.15390015 C-50.11399841 141.55390015 -50.11399841 134.95390015 -50.11399841 128.15390015 C-48.13399841 127.16390015 -46.15399841 126.17390015 -44.11399841 125.15390015 C-42.58129279 122.0884889 -42.96977675 118.87761362 -42.97215271 115.51400757 C-42.96867828 114.72505096 -42.96520386 113.93609436 -42.96162415 113.12322998 C-42.95426015 111.4050028 -42.94891821 109.68676606 -42.94533348 107.96852684 C-42.93816239 105.23851743 -42.92248627 102.5086872 -42.9039917 99.7787323 C-42.85158652 92.01457335 -42.80365388 84.2505071 -42.78807068 76.48617554 C-42.77791513 71.73742181 -42.74839029 66.9891114 -42.70675087 62.24053383 C-42.69453174 60.43989753 -42.68930278 58.63919831 -42.6915493 56.83852196 C-42.70705732 40.33419118 -40.32642927 26.42057045 -28.89524841 13.6812439 C-21.28568718 6.28168679 -10.89156388 0.08644048 0 0 Z " fill="#4E65CE" transform="translate(57.11399841308594,282.8460998535156)"/>
<path d="M0 0 C1.12019531 -0.01160156 2.24039063 -0.02320313 3.39453125 -0.03515625 C27.61268928 0.0486436 47.61484649 10.73244927 64.5 27.375 C65.50546875 28.36113281 65.50546875 28.36113281 66.53125 29.3671875 C84.90478979 48.82643645 88.11284996 73.87415614 87.5 99.375 C86.25863281 99.31699219 85.01726562 99.25898438 83.73828125 99.19921875 C82.09639186 99.15230762 80.45446168 99.10680891 78.8125 99.0625 C77.99587891 99.02060547 77.17925781 98.97871094 76.33789062 98.93554688 C71.91335625 98.8459814 70.09544617 98.9151276 66.48046875 101.70703125 C63.579517 105.61501951 63.29498143 108.81310381 62.9375 113.5625 C62.85371094 114.64917969 62.76992188 115.73585938 62.68359375 116.85546875 C62.62300781 117.68691406 62.56242188 118.51835937 62.5 119.375 C56.52040943 118.89716368 52.1055551 117.65167381 46.8125 114.875 C46.12188477 114.51897705 45.43126953 114.1629541 44.71972656 113.79614258 C30.07596978 106.06487246 17.68122555 95.69113662 7.0234375 83.0546875 C4.93332682 80.75020649 3.79144512 80.41385935 0.6875 80 C-3.59735682 80.5041008 -4.58413382 82.25239589 -7.5 85.375 C-19.99612233 98.3672919 -39.95894898 118.81665229 -59.27734375 119.46875 C-60.01082031 119.4378125 -60.74429688 119.406875 -61.5 119.375 C-61.53738281 118.57835937 -61.57476562 117.78171875 -61.61328125 116.9609375 C-62.05517335 108.73827529 -62.05517335 108.73827529 -65.5 101.375 C-68.60085571 99.30776286 -69.22931681 99.13002577 -72.73046875 99.1796875 C-73.53291016 99.18613281 -74.33535156 99.19257813 -75.16210938 99.19921875 C-75.99548828 99.21597656 -76.82886719 99.23273438 -77.6875 99.25 C-78.9549707 99.26353516 -78.9549707 99.26353516 -80.24804688 99.27734375 C-82.33215243 99.30089297 -84.41611217 99.33676353 -86.5 99.375 C-87.15369692 72.1745036 -83.06388315 49.48282269 -64.5 28.375 C-63.84515625 27.62476562 -63.1903125 26.87453125 -62.515625 26.1015625 C-46.19954142 8.62004438 -23.69308387 -0.24538292 0 0 Z " fill="#B87F7F" transform="translate(255.5,55.625)"/>
<path d="M0 0 C3.34783658 1.43690331 5.30164315 3.20139432 7.75 5.875 C22.2618053 20.62431439 42.16519229 33.37333514 63 36 C63.83811832 62.36526822 63.83811832 62.36526822 59 73 C58.61070312 73.91136719 58.22140625 74.82273437 57.8203125 75.76171875 C50.26543077 91.43027524 33.8175831 106.79274904 17.8125 113.3125 C5.74950521 117.04774204 -8.76068067 116.83799807 -20.28515625 111.54296875 C-24.59910649 109.09115531 -28.30269764 106.29902921 -32 103 C-33.21623047 101.96166016 -33.21623047 101.96166016 -34.45703125 100.90234375 C-47.65655627 89.40598325 -59.82297351 75.24273723 -61.23535156 56.95214844 C-61.29331797 53.75417096 -61.2632611 50.57250697 -61.1875 47.375 C-61.17396484 46.27542969 -61.16042969 45.17585938 -61.14648438 44.04296875 C-61.111508 41.36144668 -61.06243072 38.68099927 -61 36 C-60.23300781 35.83161621 -59.46601563 35.66323242 -58.67578125 35.48974609 C-35.39757103 30.26377129 -16.150283 17.30387464 0 0 Z " fill="#FDDECE" transform="translate(255,154)"/>
<path d="M0 0 C12.76988652 8.97775564 21.54739797 20.31243832 25.18359375 35.53515625 C26.42946922 47.62740217 25.93995369 58.67726039 20.18359375 69.53515625 C19.73757812 70.42332031 19.2915625 71.31148438 18.83203125 72.2265625 C11.81551841 85.06403711 0.2223028 93.71924247 -13.68359375 98.02734375 C-29.06416814 101.68938527 -43.47624892 99.32764524 -57.1171875 91.421875 C-69.49757166 82.76814772 -78.12908589 70.47305433 -80.81640625 55.53515625 C-82.02827036 43.48208697 -81.68075894 32.38792033 -75.81640625 21.53515625 C-75.29691406 20.56191406 -74.77742188 19.58867187 -74.2421875 18.5859375 C-66.72479095 5.74152802 -54.69505003 -2.7727151 -40.4375 -6.76953125 C-26.35849664 -9.4729429 -12.40006512 -7.44003907 0 0 Z " fill="#FEDECE" transform="translate(129.81640625,168.46484375)"/>
<path d="M0 0 C7.46819411 6.45959126 12.07831173 14.0667441 15.57421875 23.2265625 C15.9403125 24.11730469 16.30640625 25.00804687 16.68359375 25.92578125 C20.20367072 38.97168053 18.16984198 54.24254573 12.1015625 66.10546875 C3.78250983 80.2458916 -7.86227061 88.72856734 -23.55078125 93.1640625 C-37.14225011 96.06237573 -50.78039834 94.09789588 -62.79296875 87.0234375 C-74.17879357 79.25269652 -81.37229153 69.93352579 -86.42578125 57.2265625 C-86.97878906 55.88851562 -86.97878906 55.88851562 -87.54296875 54.5234375 C-90.99684348 41.62489649 -89.05816638 27.07355798 -82.953125 15.4140625 C-74.74610581 1.44466814 -62.42889663 -8.10471312 -46.73828125 -12.2734375 C-29.30076463 -15.06876459 -13.91450944 -10.59964057 0 0 Z " fill="#FEDECE" transform="translate(445.42578125,173.7734375)"/>
<path d="M0 0 C2.82605896 1.72586959 5.0851423 3.59361829 7.50390625 5.85546875 C8.57412553 6.76360508 9.64722809 7.66835065 10.72265625 8.5703125 C29.91336541 25.06245752 42.15822734 47.80842289 44.33229828 73.08044434 C44.99150955 83.74036511 44.74834537 94.46505825 44.70669413 105.14205742 C44.69404928 108.93897652 44.69300558 112.73590001 44.69064331 116.53283691 C44.68446842 123.69698407 44.66811265 130.86106897 44.64794433 138.02518892 C44.6254598 146.19226397 44.61456058 154.35934225 44.60455346 162.52644062 C44.58374206 179.30282535 44.54711684 196.07912449 44.50390625 212.85546875 C36.25390625 212.85546875 28.00390625 212.85546875 19.50390625 212.85546875 C19.45492187 209.28089844 19.4059375 205.70632813 19.35546875 202.0234375 C19.30148666 198.56823473 19.24416822 195.11310235 19.18652344 191.65795898 C19.14819843 189.25338974 19.11335184 186.84876247 19.08203125 184.4440918 C19.03645743 180.99116247 18.97844995 177.53863385 18.91796875 174.0859375 C18.90641754 173.00773239 18.89486633 171.92952728 18.88296509 170.81864929 C18.8630954 169.81783829 18.84322571 168.81702728 18.82275391 167.78588867 C18.80943024 166.90430588 18.79610657 166.02272308 18.78237915 165.11442566 C18.64080525 162.57469045 18.64080525 162.57469045 16.50390625 159.85546875 C12.93621073 159.11940376 12.93621073 159.11940376 9.50390625 158.85546875 C10.49390625 158.52546875 11.48390625 158.19546875 12.50390625 157.85546875 C12.47772217 157.26531982 12.45153809 156.6751709 12.42456055 156.06713867 C12.32061401 153.3926863 12.25559345 150.7186581 12.19140625 148.04296875 C12.14951172 147.11419922 12.10761719 146.18542969 12.06445312 145.22851562 C12.01842413 142.67850951 12.01975223 140.36069104 12.50390625 137.85546875 C14.9609375 135.84375 14.9609375 135.84375 17.50390625 134.85546875 C18.83505993 132.19316139 18.65308122 130.14069468 18.6809082 127.15917969 C18.69374344 125.96323181 18.70657867 124.76728394 18.71980286 123.53509521 C18.72718979 122.23316223 18.73457672 120.93122925 18.7421875 119.58984375 C18.74626303 118.92513313 18.75033855 118.26042252 18.75453758 117.57556915 C18.77542596 114.04517427 18.7897056 110.51481836 18.79907227 106.984375 C18.81003578 103.37365581 18.84430745 99.76357031 18.88424397 96.15307236 C18.91069512 93.34909099 18.91878979 90.54525261 18.92235374 87.74115753 C18.92946948 85.77508174 18.95580267 83.80910477 18.98274231 81.84320068 C18.93787459 62.92153332 11.6199977 45.49100936 -1.49609375 31.85546875 C-14.33699684 19.53690748 -30.52444038 14.55408254 -47.49609375 10.85546875 C-36.61910827 -1.83434764 -15.43992572 -5.0546349 0 0 Z " fill="#304CC8" transform="translate(387.49609375,284.14453125)"/>
<path d="M0 0 C1.54506226 0.00749268 1.54506226 0.00749268 3.12133789 0.01513672 C14.9369283 0.28487782 24.02394153 3.60866158 33 11.5 C30.05878518 13.46080988 27.91686967 14.02128831 24.50439453 14.69018555 C6.74140294 18.21389773 -9.020579 26.93424856 -20.0859375 41.57421875 C-22.37847103 45.07852001 -24.39457508 48.65451739 -26.3125 52.375 C-26.63822998 52.99834229 -26.96395996 53.62168457 -27.29956055 54.26391602 C-32.43564047 64.74579356 -33.44525321 75.36741347 -33.43237305 86.89746094 C-33.44141309 88.2982366 -33.45174572 89.69900442 -33.46325684 91.09976196 C-33.49059022 94.86341568 -33.50007873 98.62691837 -33.50611091 102.39065838 C-33.51555692 106.33848117 -33.5417648 110.28619384 -33.56611633 114.23394775 C-33.60961503 121.69212875 -33.63826371 129.15028816 -33.66143972 136.60855699 C-33.68858109 145.10692377 -33.7324867 153.60517886 -33.77772844 162.10346556 C-33.87033624 179.5689214 -33.94153106 197.03439767 -34 214.5 C-42.25 214.5 -50.5 214.5 -59 214.5 C-59.09297928 196.29640687 -59.16417333 178.09289643 -59.20724869 159.88911629 C-59.22778952 151.43494661 -59.25574582 142.98092807 -59.30175781 134.52685547 C-59.34188752 127.14999335 -59.36749425 119.7732408 -59.37635398 112.39627254 C-59.381525 108.49769754 -59.39349672 104.59943571 -59.42292023 100.70096207 C-59.66028219 67.93852976 -54.51570981 39.54174413 -30.91015625 15.265625 C-26.3585388 10.80575522 -21.27582222 7.06004622 -16 3.5 C-15.28585938 2.93410156 -14.57171875 2.36820312 -13.8359375 1.78515625 C-9.33766985 -0.2533149 -4.88235439 -0.03057106 0 0 Z " fill="#304CC8" transform="translate(139,282.5)"/>
<path d="M0 0 C14.2849152 6.49575621 22.64637461 15.83019666 28.9921875 30.296875 C31.99695276 38.35616786 32.29426865 45.28097652 32.30859375 53.88671875 C32.31970705 55.23477763 32.33210336 56.58282649 32.34571838 57.93086243 C32.40085463 63.6274015 32.43188375 69.32400678 32.45629883 75.02075195 C32.47218066 78.51733152 32.50239178 82.01356046 32.54106331 85.50995827 C32.55833251 87.4818886 32.55876789 89.45394315 32.5589447 91.4259491 C32.57895287 93.22350395 32.57895287 93.22350395 32.59936523 95.05737305 C32.60443588 96.11103561 32.60950653 97.16469818 32.61473083 98.25028992 C33.05802651 101.41414186 33.72817123 102.77278507 36 105 C37.32 105.33 38.64 105.66 40 106 C40 112.6 40 119.2 40 126 C38.02 126.99 36.04 127.98 34 129 C32.77916915 131.4416617 32.84269257 133.08690806 32.79467773 135.81689453 C32.77473251 136.81778107 32.75478729 137.8186676 32.73423767 138.84988403 C32.70916893 140.47493362 32.70916893 140.47493362 32.68359375 142.1328125 C32.66281265 143.23978485 32.64203156 144.3467572 32.62062073 145.48727417 C32.55509009 149.03311799 32.49622386 152.57903754 32.4375 156.125 C32.39431813 158.5247475 32.35070395 160.92448727 32.30664062 163.32421875 C32.19858939 169.21606925 32.09954176 175.10797492 32 181 C24.08 181 16.16 181 8 181 C7.99453156 178.05868668 7.99453156 178.05868668 7.98895264 175.05795288 C7.95195953 156.54930261 7.89437422 138.04081651 7.81609726 119.53229332 C7.77638071 110.01761996 7.74395084 100.50302843 7.72900391 90.98828125 C7.71594897 82.68991965 7.68888689 74.39173865 7.64538693 66.0934788 C7.6228581 61.70439034 7.60708413 57.31552393 7.60811615 52.92637253 C7.60886788 48.78448871 7.59071409 44.64309411 7.55883217 40.50133705 C7.55040112 38.9914365 7.54853631 37.48148063 7.55419731 35.97156715 C7.59425415 23.63184935 5.54797852 13.08156534 0 2 C0 1.34 0 0.68 0 0 Z " fill="#D2EEFC" transform="translate(360,316)"/>
<path d="M0 0 C19.26335441 12.33363285 32.92733474 31.44671128 38 54 C39.22552209 60.47176391 39.11319209 66.86702498 39.0625 73.4375 C39.05798828 74.55060547 39.05347656 75.66371094 39.04882812 76.81054688 C39.03711193 79.54042101 39.02070699 82.27018174 39 85 C37.75863281 84.94199219 36.51726562 84.88398438 35.23828125 84.82421875 C33.59639186 84.77730762 31.95446168 84.73180891 30.3125 84.6875 C29.49587891 84.64560547 28.67925781 84.60371094 27.83789062 84.56054688 C23.41335625 84.4709814 21.59544617 84.5401276 17.98046875 87.33203125 C15.079517 91.24001951 14.79498143 94.43810381 14.4375 99.1875 C14.35371094 100.27417969 14.26992188 101.36085938 14.18359375 102.48046875 C14.12300781 103.31191406 14.06242187 104.14335937 14 105 C8.01960118 104.5220991 3.60673559 103.27543885 -1.6875 100.5 C-2.37231445 100.14905273 -3.05712891 99.79810547 -3.76269531 99.43652344 C-12.14788226 95.02837745 -20.45870908 89.91507898 -27 83 C-26.154375 82.38125 -25.30875 81.7625 -24.4375 81.125 C-9.63703304 68.61219304 -2.19589365 45.52329474 0 27 C0.21576843 22.24512772 0.19216523 17.50839824 0.125 12.75 C0.11597656 11.51636719 0.10695313 10.28273438 0.09765625 9.01171875 C0.07436851 6.00759976 0.04166756 3.00391057 0 0 Z " fill="#AC6B6B" transform="translate(304,70)"/>
<path d="M0 0 C9.85249738 7.64071226 16.42793199 17.729544 19 30 C20.25337562 42.08802689 19.75383716 53.14686271 14 64 C13.55398437 64.88816406 13.10796875 65.77632813 12.6484375 66.69140625 C5.63192466 79.52888086 -5.96129095 88.18408622 -19.8671875 92.4921875 C-35.408518 96.19250429 -49.61991554 93.67021344 -63.41015625 85.79296875 C-67.8180251 82.74136724 -71.42500079 78.97222135 -75 75 C-73 74 -73 74 -70.91015625 74.421875 C-55.27774372 77.5273744 -39.50884604 74.15188985 -26 66 C-12.30929111 56.81720745 -3.45849837 43.07632871 0.3125 27.0625 C1.84015069 18.09836104 1.21519756 8.96208201 0 0 Z " fill="#FCCCBD" transform="translate(136,174)"/>
<path d="M0 0 C8.68020871 4.55899657 13.73180749 14.02056017 17 23 C17.35578125 23.86882812 17.7115625 24.73765625 18.078125 25.6328125 C21.6507552 38.6819957 19.60154409 54.0044085 13.52734375 65.87890625 C5.20829108 80.0193291 -6.43648936 88.50200484 -22.125 92.9375 C-35.72276775 95.83715644 -49.31312672 93.85370862 -61.34765625 86.8203125 C-72.37331839 79.25336323 -72.37331839 79.25336323 -75 74 C-73.53046875 74.23783203 -73.53046875 74.23783203 -72.03125 74.48046875 C-54.41525061 76.9698783 -37.75384552 74.46445504 -23 64 C-10.87106691 54.78131379 -2.60165119 41.33618834 0.7265625 26.390625 C1.71843066 17.71886337 1.4325953 8.5955718 0 0 Z " fill="#FCCCBD" transform="translate(444,174)"/>
<path d="M0 0 C3.31535115 0.60508449 6.3948249 1.43993185 9.578125 2.53515625 C15.33474131 4.28323311 20.76451165 4.49507584 26.75 4.4375 C28.32237427 4.43266602 28.32237427 4.43266602 29.92651367 4.42773438 C37.27813522 4.2961008 43.53400847 3.33850622 50.48828125 0.875 C53 0 53 0 56 0 C56.01458252 0.55985596 56.02916504 1.11971191 56.04418945 1.6965332 C56.11871352 4.23588137 56.21535581 6.77392078 56.3125 9.3125 C56.33505859 10.19357422 56.35761719 11.07464844 56.38085938 11.98242188 C56.41630859 12.82998047 56.45175781 13.67753906 56.48828125 14.55078125 C56.51446533 15.33106689 56.54064941 16.11135254 56.56762695 16.9152832 C57.10191015 19.49136692 57.95494804 20.38927339 60 22 C62.26393971 22.78356902 62.26393971 22.78356902 64.6875 23.1875 C65.89986328 23.42533203 65.89986328 23.42533203 67.13671875 23.66796875 C67.75160156 23.77753906 68.36648438 23.88710938 69 24 C65.47320644 27.65741555 61.77367685 30.89327169 57.75 34 C57.15590332 34.46277344 56.56180664 34.92554688 55.94970703 35.40234375 C47.02321896 42.33928991 38.06103696 49.23943356 29 56 C24.93475638 54.23602895 21.56361548 51.54147884 18.0625 48.875 C17.38243896 48.36018066 16.70237793 47.84536133 16.00170898 47.31494141 C14.49876893 46.17621332 12.99695603 45.03599649 11.49609375 43.89453125 C8.77387752 41.82837339 6.04342751 39.77337783 3.3125 37.71875 C1.39559174 36.2711532 -0.5210776 34.82323996 -2.4375 33.375 C-3.36747803 32.67616699 -4.29745605 31.97733398 -5.25561523 31.25732422 C-6.11872314 30.6026416 -6.98183105 29.94795898 -7.87109375 29.2734375 C-8.64380615 28.68997559 -9.41651855 28.10651367 -10.21264648 27.50537109 C-12 26 -12 26 -13 24 C-12.30132812 23.80664062 -11.60265625 23.61328125 -10.8828125 23.4140625 C-9.51769531 23.02347656 -9.51769531 23.02347656 -8.125 22.625 C-7.22007812 22.36976563 -6.31515625 22.11453125 -5.3828125 21.8515625 C-2.85430274 21.1395685 -2.85430274 21.1395685 -1 19 C-0.63105418 16.96939341 -0.63105418 16.96939341 -0.5859375 14.6484375 C-0.54726562 13.79765625 -0.50859375 12.946875 -0.46875 12.0703125 C-0.4378125 11.18085938 -0.406875 10.29140625 -0.375 9.375 C-0.31699219 8.02921875 -0.31699219 8.02921875 -0.2578125 6.65625 C-0.16340643 4.4377073 -0.07783252 2.21917597 0 0 Z " fill="#FCDCCC" transform="translate(228,279)"/>
<path d="M0 0 C7.13066515 4.76347835 12.35959187 10.76734284 15 19 C15.33580724 21.50736071 15.27545732 23.46579268 15 26 C10.2551516 25.45272185 5.59919773 24.76543463 0.91381836 23.84448242 C-15.97988595 20.57251715 -32.29761509 22.22590341 -49 26 C-49.81036368 18.54465419 -46.94427819 12.86343103 -42.4609375 6.98046875 C-31.05826991 -5.42195879 -14.84497683 -6.82464239 0 0 Z " fill="#985C5C" transform="translate(273,19)"/>
<path d="M0 0 C1.06927734 0.30744141 1.06927734 0.30744141 2.16015625 0.62109375 C7.43976749 2.10620647 12.54711116 3.39412346 18 4 C18.83811832 30.36526822 18.83811832 30.36526822 14 41 C13.61070312 41.91136719 13.22140625 42.82273438 12.8203125 43.76171875 C5.15789395 59.65330278 -11.62289808 75.48758504 -28.1875 81.3125 C-31.94728331 82.55919093 -35.03572345 83.19567727 -39 83 C-36.24983757 80.16389499 -33.44516906 77.4993559 -30.4375 74.9375 C-15.71683926 62.05344344 -4.45102279 48.9936561 -1 29 C-0.85536047 26.72480822 -0.75386208 24.44667026 -0.68359375 22.16796875 C-0.62075195 20.22954102 -0.62075195 20.22954102 -0.55664062 18.25195312 C-0.51683648 16.89713808 -0.47712409 15.54232033 -0.4375 14.1875 C-0.39426277 12.81313895 -0.35064688 11.43878976 -0.30664062 10.06445312 C-0.2007021 6.70973331 -0.09862811 3.3549414 0 0 Z " fill="#FBCBBC" transform="translate(300,186)"/>
<path d="M0 0 C3.31535115 0.60508449 6.3948249 1.43993185 9.578125 2.53515625 C15.33474131 4.28323311 20.76451165 4.49507584 26.75 4.4375 C28.32237427 4.43266602 28.32237427 4.43266602 29.92651367 4.42773438 C37.27813522 4.2961008 43.53400847 3.33850622 50.48828125 0.875 C53 0 53 0 56 0 C56 5.94 56 11.88 56 18 C39.15058401 23.87176618 18.10032038 24.73975971 1 19 C0 18 0 18 -0.11352539 16.23413086 C-0.10828857 15.48526611 -0.10305176 14.73640137 -0.09765625 13.96484375 C-0.09443359 13.15595703 -0.09121094 12.34707031 -0.08789062 11.51367188 C-0.07951172 10.66353516 -0.07113281 9.81339844 -0.0625 8.9375 C-0.05798828 8.08349609 -0.05347656 7.22949219 -0.04882812 6.34960938 C-0.03700373 4.23304337 -0.01906769 2.11651315 0 0 Z " fill="#F8C9BA" transform="translate(228,279)"/>
<path d="M0 0 C0 9.57 0 19.14 0 29 C-8.05263158 27.84962406 -8.05263158 27.84962406 -12 23 C-14.69003947 18.49772341 -14.65430596 14.11327994 -14 9 C-10.75372695 2.38722155 -7.32660135 0 0 0 Z " fill="#FBAD9B" transform="translate(179,169)"/>
<path d="M0 0 C8.16666667 1.16666667 8.16666667 1.16666667 12 5 C14.72325783 9.4909866 14.62874885 13.89141561 14 19 C12.6516374 23.12169932 10.68449839 25.55792812 7 27.9375 C4 29 4 29 0 29 C0 19.43 0 9.86 0 0 Z " fill="#FBAD9C" transform="translate(333,169)"/>
<path d="M0 0 C2.5 1.5 2.5 1.5 4 4 C4.79126072 8.02224201 4.66872394 10.95679065 2.4375 14.4375 C-0.83565762 16.53567796 -3.11417724 17 -7 17 C-9.80189446 15.23358828 -11.51524911 13.96950178 -13 11 C-13.52981019 7.02642355 -13.31881474 5.45829619 -11 2.125 C-6.85436985 -0.81148802 -5.00671711 -0.7152453 0 0 Z " fill="#4B62C8" transform="translate(334,413)"/>
</svg>
